<?xml version="1.0" encoding="utf-8"?>
<!-- Generator: Adobe Illustrator 18.1.1, SVG Export Plug-In . SVG Version: 6.00 Build 0)  -->
<svg version="1.1" id="Capa_1" xmlns="http://www.w3.org/2000/svg" xmlns:xlink="http://www.w3.org/1999/xlink" x="0px" y="0px"
	 viewBox="-550 894.6 551.4 551.4" enable-background="new -550 894.6 551.4 551.4" xml:space="preserve">
<g>
	<path fill="#1FAD17" d="M-136.3,894.6c0,0-45.4,44-94.4,61.8c-363.3,131.4-210.1,387.5-205.1,388.4c0,0,20.4-35.5,47.9-55.7
		c174.6-128.4,210.1-276.2,210.1-276.2s-39.2,177.8-194.6,288.5c-34.3,24.4-57.6,84.6-67.4,144.7c0,0,24.3-9.8,34.8-12.5
		c4.1-26.6,12.6-52.1,27-74.9c217.2,25.9,288.3-149.1,297.6-210.1C-58.4,1004.4-136.3,894.6-136.3,894.6z"/>
</g>
</svg>
